<?xml version="1.0" encoding="utf-8" standalone="no"?>
<!DOCTYPE svg PUBLIC "-//W3C//DTD SVG 1.1//EN"
  "http://www.w3.org/Graphics/SVG/1.1/DTD/svg11.dtd">
<svg xmlns:xlink="http://www.w3.org/1999/xlink" width="460.8pt" height="345.6pt" viewBox="0 0 460.8 345.6" xmlns="http://www.w3.org/2000/svg" version="1.1">
 <metadata>
  <rdf:RDF xmlns:dc="http://purl.org/dc/elements/1.1/" xmlns:cc="http://creativecommons.org/ns#" xmlns:rdf="http://www.w3.org/1999/02/22-rdf-syntax-ns#">
   <cc:Work>
    <dc:type rdf:resource="http://purl.org/dc/dcmitype/StillImage"/>
    <dc:date>2024-12-19T00:26:08.188494</dc:date>
    <dc:format>image/svg+xml</dc:format>
    <dc:creator>
     <cc:Agent>
      <dc:title>Matplotlib v3.7.2, https://matplotlib.org/</dc:title>
     </cc:Agent>
    </dc:creator>
   </cc:Work>
  </rdf:RDF>
 </metadata>
 <defs>
  <style type="text/css">*{stroke-linejoin: round; stroke-linecap: butt}</style>
 </defs>
 <g id="figure_1">
  <g id="patch_1">
   <path d="M 0 345.6 
L 460.8 345.6 
L 460.8 0 
L 0 0 
z
" style="fill: #ffffff"/>
  </g>
  <g id="axes_1">
   <g id="patch_2">
    <path d="M 57.6 307.584 
L 414.72 307.584 
L 414.72 41.472 
L 57.6 41.472 
z
" style="fill: #ffffff"/>
   </g>
   <g id="matplotlib.axis_1">
    <g id="xtick_1">
     <g id="line2d_1">
      <defs>
       <path id="m653ad60ef6" d="M 0 0 
L 0 3.5 
" style="stroke: #000000; stroke-width: 0.8"/>
      </defs>
      <g>
       <use xlink:href="#m653ad60ef6" x="95.274222" y="307.584" style="stroke: #000000; stroke-width: 0.8"/>
      </g>
     </g>
     <g id="text_1">
      <!-- 1200 -->
      <g transform="translate(82.549222 322.182437) scale(0.1 -0.1)">
       <defs>
        <path id="DejaVuSans-31" d="M 794 531 
L 1825 531 
L 1825 4091 
L 703 3866 
L 703 4441 
L 1819 4666 
L 2450 4666 
L 2450 531 
L 3481 531 
L 3481 0 
L 794 0 
L 794 531 
z
" transform="scale(0.015625)"/>
        <path id="DejaVuSans-32" d="M 1228 531 
L 3431 531 
L 3431 0 
L 469 0 
L 469 531 
Q 828 903 1448 1529 
Q 2069 2156 2228 2338 
Q 2531 2678 2651 2914 
Q 2772 3150 2772 3378 
Q 2772 3750 2511 3984 
Q 2250 4219 1831 4219 
Q 1534 4219 1204 4116 
Q 875 4013 500 3803 
L 500 4441 
Q 881 4594 1212 4672 
Q 1544 4750 1819 4750 
Q 2544 4750 2975 4387 
Q 3406 4025 3406 3419 
Q 3406 3131 3298 2873 
Q 3191 2616 2906 2266 
Q 2828 2175 2409 1742 
Q 1991 1309 1228 531 
z
" transform="scale(0.015625)"/>
        <path id="DejaVuSans-30" d="M 2034 4250 
Q 1547 4250 1301 3770 
Q 1056 3291 1056 2328 
Q 1056 1369 1301 889 
Q 1547 409 2034 409 
Q 2525 409 2770 889 
Q 3016 1369 3016 2328 
Q 3016 3291 2770 3770 
Q 2525 4250 2034 4250 
z
M 2034 4750 
Q 2819 4750 3233 4129 
Q 3647 3509 3647 2328 
Q 3647 1150 3233 529 
Q 2819 -91 2034 -91 
Q 1250 -91 836 529 
Q 422 1150 422 2328 
Q 422 3509 836 4129 
Q 1250 4750 2034 4750 
z
" transform="scale(0.015625)"/>
       </defs>
       <use xlink:href="#DejaVuSans-31"/>
       <use xlink:href="#DejaVuSans-32" x="63.623047"/>
       <use xlink:href="#DejaVuSans-30" x="127.246094"/>
       <use xlink:href="#DejaVuSans-30" x="190.869141"/>
      </g>
     </g>
    </g>
    <g id="xtick_2">
     <g id="line2d_2">
      <g>
       <use xlink:href="#m653ad60ef6" x="138.590372" y="307.584" style="stroke: #000000; stroke-width: 0.8"/>
      </g>
     </g>
     <g id="text_2">
      <!-- 1400 -->
      <g transform="translate(125.865372 322.182437) scale(0.1 -0.1)">
       <defs>
        <path id="DejaVuSans-34" d="M 2419 4116 
L 825 1625 
L 2419 1625 
L 2419 4116 
z
M 2253 4666 
L 3047 4666 
L 3047 1625 
L 3713 1625 
L 3713 1100 
L 3047 1100 
L 3047 0 
L 2419 0 
L 2419 1100 
L 313 1100 
L 313 1709 
L 2253 4666 
z
" transform="scale(0.015625)"/>
       </defs>
       <use xlink:href="#DejaVuSans-31"/>
       <use xlink:href="#DejaVuSans-34" x="63.623047"/>
       <use xlink:href="#DejaVuSans-30" x="127.246094"/>
       <use xlink:href="#DejaVuSans-30" x="190.869141"/>
      </g>
     </g>
    </g>
    <g id="xtick_3">
     <g id="line2d_3">
      <g>
       <use xlink:href="#m653ad60ef6" x="181.906522" y="307.584" style="stroke: #000000; stroke-width: 0.8"/>
      </g>
     </g>
     <g id="text_3">
      <!-- 1600 -->
      <g transform="translate(169.181522 322.182437) scale(0.1 -0.1)">
       <defs>
        <path id="DejaVuSans-36" d="M 2113 2584 
Q 1688 2584 1439 2293 
Q 1191 2003 1191 1497 
Q 1191 994 1439 701 
Q 1688 409 2113 409 
Q 2538 409 2786 701 
Q 3034 994 3034 1497 
Q 3034 2003 2786 2293 
Q 2538 2584 2113 2584 
z
M 3366 4563 
L 3366 3988 
Q 3128 4100 2886 4159 
Q 2644 4219 2406 4219 
Q 1781 4219 1451 3797 
Q 1122 3375 1075 2522 
Q 1259 2794 1537 2939 
Q 1816 3084 2150 3084 
Q 2853 3084 3261 2657 
Q 3669 2231 3669 1497 
Q 3669 778 3244 343 
Q 2819 -91 2113 -91 
Q 1303 -91 875 529 
Q 447 1150 447 2328 
Q 447 3434 972 4092 
Q 1497 4750 2381 4750 
Q 2619 4750 2861 4703 
Q 3103 4656 3366 4563 
z
" transform="scale(0.015625)"/>
       </defs>
       <use xlink:href="#DejaVuSans-31"/>
       <use xlink:href="#DejaVuSans-36" x="63.623047"/>
       <use xlink:href="#DejaVuSans-30" x="127.246094"/>
       <use xlink:href="#DejaVuSans-30" x="190.869141"/>
      </g>
     </g>
    </g>
    <g id="xtick_4">
     <g id="line2d_4">
      <g>
       <use xlink:href="#m653ad60ef6" x="225.222672" y="307.584" style="stroke: #000000; stroke-width: 0.8"/>
      </g>
     </g>
     <g id="text_4">
      <!-- 1800 -->
      <g transform="translate(212.497672 322.182437) scale(0.1 -0.1)">
       <defs>
        <path id="DejaVuSans-38" d="M 2034 2216 
Q 1584 2216 1326 1975 
Q 1069 1734 1069 1313 
Q 1069 891 1326 650 
Q 1584 409 2034 409 
Q 2484 409 2743 651 
Q 3003 894 3003 1313 
Q 3003 1734 2745 1975 
Q 2488 2216 2034 2216 
z
M 1403 2484 
Q 997 2584 770 2862 
Q 544 3141 544 3541 
Q 544 4100 942 4425 
Q 1341 4750 2034 4750 
Q 2731 4750 3128 4425 
Q 3525 4100 3525 3541 
Q 3525 3141 3298 2862 
Q 3072 2584 2669 2484 
Q 3125 2378 3379 2068 
Q 3634 1759 3634 1313 
Q 3634 634 3220 271 
Q 2806 -91 2034 -91 
Q 1263 -91 848 271 
Q 434 634 434 1313 
Q 434 1759 690 2068 
Q 947 2378 1403 2484 
z
M 1172 3481 
Q 1172 3119 1398 2916 
Q 1625 2713 2034 2713 
Q 2441 2713 2670 2916 
Q 2900 3119 2900 3481 
Q 2900 3844 2670 4047 
Q 2441 4250 2034 4250 
Q 1625 4250 1398 4047 
Q 1172 3844 1172 3481 
z
" transform="scale(0.015625)"/>
       </defs>
       <use xlink:href="#DejaVuSans-31"/>
       <use xlink:href="#DejaVuSans-38" x="63.623047"/>
       <use xlink:href="#DejaVuSans-30" x="127.246094"/>
       <use xlink:href="#DejaVuSans-30" x="190.869141"/>
      </g>
     </g>
    </g>
    <g id="xtick_5">
     <g id="line2d_5">
      <g>
       <use xlink:href="#m653ad60ef6" x="268.538822" y="307.584" style="stroke: #000000; stroke-width: 0.8"/>
      </g>
     </g>
     <g id="text_5">
      <!-- 2000 -->
      <g transform="translate(255.813822 322.182437) scale(0.1 -0.1)">
       <use xlink:href="#DejaVuSans-32"/>
       <use xlink:href="#DejaVuSans-30" x="63.623047"/>
       <use xlink:href="#DejaVuSans-30" x="127.246094"/>
       <use xlink:href="#DejaVuSans-30" x="190.869141"/>
      </g>
     </g>
    </g>
    <g id="xtick_6">
     <g id="line2d_6">
      <g>
       <use xlink:href="#m653ad60ef6" x="311.854972" y="307.584" style="stroke: #000000; stroke-width: 0.8"/>
      </g>
     </g>
     <g id="text_6">
      <!-- 2200 -->
      <g transform="translate(299.129972 322.182437) scale(0.1 -0.1)">
       <use xlink:href="#DejaVuSans-32"/>
       <use xlink:href="#DejaVuSans-32" x="63.623047"/>
       <use xlink:href="#DejaVuSans-30" x="127.246094"/>
       <use xlink:href="#DejaVuSans-30" x="190.869141"/>
      </g>
     </g>
    </g>
    <g id="xtick_7">
     <g id="line2d_7">
      <g>
       <use xlink:href="#m653ad60ef6" x="355.171123" y="307.584" style="stroke: #000000; stroke-width: 0.8"/>
      </g>
     </g>
     <g id="text_7">
      <!-- 2400 -->
      <g transform="translate(342.446123 322.182437) scale(0.1 -0.1)">
       <use xlink:href="#DejaVuSans-32"/>
       <use xlink:href="#DejaVuSans-34" x="63.623047"/>
       <use xlink:href="#DejaVuSans-30" x="127.246094"/>
       <use xlink:href="#DejaVuSans-30" x="190.869141"/>
      </g>
     </g>
    </g>
    <g id="xtick_8">
     <g id="line2d_8">
      <g>
       <use xlink:href="#m653ad60ef6" x="398.487273" y="307.584" style="stroke: #000000; stroke-width: 0.8"/>
      </g>
     </g>
     <g id="text_8">
      <!-- 2600 -->
      <g transform="translate(385.762273 322.182437) scale(0.1 -0.1)">
       <use xlink:href="#DejaVuSans-32"/>
       <use xlink:href="#DejaVuSans-36" x="63.623047"/>
       <use xlink:href="#DejaVuSans-30" x="127.246094"/>
       <use xlink:href="#DejaVuSans-30" x="190.869141"/>
      </g>
     </g>
    </g>
   </g>
   <g id="matplotlib.axis_2">
    <g id="ytick_1">
     <g id="line2d_9">
      <defs>
       <path id="mbc11d957b1" d="M 0 0 
L -3.5 0 
" style="stroke: #000000; stroke-width: 0.8"/>
      </defs>
      <g>
       <use xlink:href="#mbc11d957b1" x="57.6" y="296.135182" style="stroke: #000000; stroke-width: 0.8"/>
      </g>
     </g>
     <g id="text_9">
      <!-- 0.0 -->
      <g transform="translate(34.696875 299.934401) scale(0.1 -0.1)">
       <defs>
        <path id="DejaVuSans-2e" d="M 684 794 
L 1344 794 
L 1344 0 
L 684 0 
L 684 794 
z
" transform="scale(0.015625)"/>
       </defs>
       <use xlink:href="#DejaVuSans-30"/>
       <use xlink:href="#DejaVuSans-2e" x="63.623047"/>
       <use xlink:href="#DejaVuSans-30" x="95.410156"/>
      </g>
     </g>
    </g>
    <g id="ytick_2">
     <g id="line2d_10">
      <g>
       <use xlink:href="#mbc11d957b1" x="57.6" y="253.584194" style="stroke: #000000; stroke-width: 0.8"/>
      </g>
     </g>
     <g id="text_10">
      <!-- 0.2 -->
      <g transform="translate(34.696875 257.383413) scale(0.1 -0.1)">
       <use xlink:href="#DejaVuSans-30"/>
       <use xlink:href="#DejaVuSans-2e" x="63.623047"/>
       <use xlink:href="#DejaVuSans-32" x="95.410156"/>
      </g>
     </g>
    </g>
    <g id="ytick_3">
     <g id="line2d_11">
      <g>
       <use xlink:href="#mbc11d957b1" x="57.6" y="211.033206" style="stroke: #000000; stroke-width: 0.8"/>
      </g>
     </g>
     <g id="text_11">
      <!-- 0.4 -->
      <g transform="translate(34.696875 214.832425) scale(0.1 -0.1)">
       <use xlink:href="#DejaVuSans-30"/>
       <use xlink:href="#DejaVuSans-2e" x="63.623047"/>
       <use xlink:href="#DejaVuSans-34" x="95.410156"/>
      </g>
     </g>
    </g>
    <g id="ytick_4">
     <g id="line2d_12">
      <g>
       <use xlink:href="#mbc11d957b1" x="57.6" y="168.482218" style="stroke: #000000; stroke-width: 0.8"/>
      </g>
     </g>
     <g id="text_12">
      <!-- 0.6 -->
      <g transform="translate(34.696875 172.281437) scale(0.1 -0.1)">
       <use xlink:href="#DejaVuSans-30"/>
       <use xlink:href="#DejaVuSans-2e" x="63.623047"/>
       <use xlink:href="#DejaVuSans-36" x="95.410156"/>
      </g>
     </g>
    </g>
    <g id="ytick_5">
     <g id="line2d_13">
      <g>
       <use xlink:href="#mbc11d957b1" x="57.6" y="125.931231" style="stroke: #000000; stroke-width: 0.8"/>
      </g>
     </g>
     <g id="text_13">
      <!-- 0.8 -->
      <g transform="translate(34.696875 129.730449) scale(0.1 -0.1)">
       <use xlink:href="#DejaVuSans-30"/>
       <use xlink:href="#DejaVuSans-2e" x="63.623047"/>
       <use xlink:href="#DejaVuSans-38" x="95.410156"/>
      </g>
     </g>
    </g>
    <g id="ytick_6">
     <g id="line2d_14">
      <g>
       <use xlink:href="#mbc11d957b1" x="57.6" y="83.380243" style="stroke: #000000; stroke-width: 0.8"/>
      </g>
     </g>
     <g id="text_14">
      <!-- 1.0 -->
      <g transform="translate(34.696875 87.179462) scale(0.1 -0.1)">
       <use xlink:href="#DejaVuSans-31"/>
       <use xlink:href="#DejaVuSans-2e" x="63.623047"/>
       <use xlink:href="#DejaVuSans-30" x="95.410156"/>
      </g>
     </g>
    </g>
   </g>
   <g id="line2d_15">
    <path d="M 73.832727 53.568 
L 74.049308 68.961383 
L 74.265889 131.973875 
L 74.69905 177.504406 
L 74.915631 123.218951 
L 75.132212 133.954156 
L 75.348793 215.314822 
L 75.565373 103.059916 
L 75.781954 182.750915 
L 75.998535 176.744625 
L 76.215116 126.289446 
L 76.431696 206.064851 
L 76.648277 173.811189 
L 76.864858 165.505635 
L 77.081439 176.892234 
L 77.298019 172.46011 
L 77.5146 178.682817 
L 77.731181 157.765739 
L 77.947762 190.489461 
L 78.164342 185.239572 
L 78.380923 185.85064 
L 78.597504 189.748759 
L 78.814085 190.455241 
L 79.030665 207.354394 
L 79.247246 210.000836 
L 79.463827 197.683483 
L 79.680408 214.130869 
L 79.896988 203.162585 
L 80.113569 219.33813 
L 80.33015 180.941006 
L 80.546731 174.72242 
L 80.763311 216.029388 
L 80.979892 219.100447 
L 81.196473 191.797766 
L 81.413054 230.306104 
L 81.629634 229.599648 
L 81.846215 177.8111 
L 82.062796 175.564806 
L 82.279377 178.623951 
L 82.495957 209.272797 
L 82.712538 202.382876 
L 82.929119 211.216924 
L 83.1457 204.271427 
L 83.36228 205.147849 
L 83.578861 217.615956 
L 83.795442 216.584932 
L 84.012023 218.171062 
L 84.228603 227.196387 
L 84.445184 203.031398 
L 84.661765 199.446237 
L 84.878346 230.578636 
L 85.094926 209.959343 
L 85.528088 228.887264 
L 85.744669 219.197293 
L 86.17783 237.399856 
L 86.394411 214.650303 
L 86.610992 229.575351 
L 86.827572 177.927729 
L 87.044153 212.568465 
L 87.260734 221.843583 
L 87.477315 211.550077 
L 87.910476 228.387213 
L 88.127057 222.72684 
L 88.343638 225.233168 
L 88.560218 216.270242 
L 88.776799 220.969 
L 88.99338 235.390891 
L 89.209961 230.96784 
L 89.426541 214.290468 
L 89.643122 236.636582 
L 89.859703 216.875007 
L 90.076284 214.15282 
L 90.292864 227.26113 
L 90.509445 223.431147 
L 90.726026 223.746648 
L 90.942607 214.046431 
L 91.159187 213.869688 
L 91.375768 245.273872 
L 92.02551 213.702854 
L 92.242091 230.235045 
L 92.458672 221.544282 
L 92.675253 238.939111 
L 92.891833 229.203101 
L 93.108414 230.645529 
L 93.324995 230.139765 
L 93.541576 223.463662 
L 93.758156 231.982423 
L 93.974737 213.21057 
L 94.191318 244.621365 
L 94.407899 228.307892 
L 94.624479 232.906888 
L 94.84106 211.018121 
L 95.057641 260.729533 
L 95.274222 213.303777 
L 95.490802 236.239871 
L 95.707383 236.987515 
L 95.923964 238.168209 
L 96.140545 238.638148 
L 96.357125 236.266653 
L 96.573706 252.318757 
L 96.790287 243.380438 
L 97.006868 214.831162 
L 97.223448 242.695087 
L 97.440029 254.12335 
L 97.65661 238.32344 
L 97.873191 211.622385 
L 98.089771 229.240004 
L 98.306352 225.658166 
L 98.522933 227.477826 
L 98.739514 240.993431 
L 98.956094 245.105754 
L 99.172675 223.194066 
L 99.389256 228.006074 
L 99.605837 227.747473 
L 99.822417 240.146937 
L 100.038998 241.132784 
L 100.255579 240.772962 
L 100.905321 225.547433 
L 101.121902 246.194564 
L 101.338483 248.68161 
L 101.555063 240.985492 
L 101.771644 242.733815 
L 101.988225 234.72322 
L 102.204806 206.472297 
L 102.421386 257.681065 
L 102.637967 249.831258 
L 102.854548 227.802579 
L 103.071129 243.871536 
L 103.287709 247.710634 
L 103.50429 213.132778 
L 103.937452 244.296105 
L 104.154032 239.445268 
L 104.370613 252.069753 
L 104.803775 240.633938 
L 105.020355 240.798363 
L 105.236936 249.582697 
L 105.453517 252.57797 
L 105.670098 227.294298 
L 105.886678 273.33476 
L 106.103259 253.831714 
L 106.31984 244.649587 
L 106.536421 226.938261 
L 106.753001 231.568021 
L 107.186163 271.631816 
L 107.402744 265.419081 
L 107.619324 263.515347 
L 107.835905 249.645967 
L 108.052486 217.031893 
L 108.485647 241.20125 
L 108.702228 227.501578 
L 108.918809 251.341273 
L 109.13539 246.944047 
L 109.35197 253.723214 
L 109.568551 250.631031 
L 109.785132 259.073611 
L 110.001713 226.922796 
L 110.218293 270.745589 
L 110.434874 246.544691 
L 110.651455 251.545842 
L 110.868036 243.189729 
L 111.084616 254.40244 
L 111.517778 227.752723 
L 111.734359 241.48879 
L 111.950939 240.761568 
L 112.16752 262.376447 
L 112.600682 267.402117 
L 112.817262 242.691435 
L 113.033843 244.506695 
L 113.250424 247.301932 
L 113.467005 242.829286 
L 113.683585 255.407532 
L 113.900166 238.277356 
L 114.116747 241.550109 
L 114.333328 259.400843 
L 114.549908 250.563086 
L 114.766489 265.432948 
L 114.98307 255.876954 
L 115.199651 237.082979 
L 115.416231 207.806611 
L 115.632812 232.289885 
L 115.849393 235.555879 
L 116.065974 256.593666 
L 116.499135 233.651419 
L 116.715716 258.029693 
L 116.932297 243.811386 
L 117.148877 244.692348 
L 117.365458 236.82744 
L 117.79862 263.725912 
L 118.0152 262.038595 
L 118.231781 239.17902 
L 118.664943 265.049945 
L 118.881523 246.38967 
L 119.098104 239.871749 
L 119.314685 240.950131 
L 119.531266 231.156162 
L 119.964427 273.253681 
L 120.181008 241.689983 
L 120.397589 242.361547 
L 120.614169 232.79083 
L 120.83075 268.759365 
L 121.047331 264.716836 
L 121.480492 242.630274 
L 121.697073 246.888523 
L 121.913654 268.094583 
L 122.346815 242.02093 
L 122.563396 264.369828 
L 122.779977 264.767535 
L 123.213138 240.108335 
L 123.429719 260.153239 
L 123.6463 257.683205 
L 123.862881 249.804814 
L 124.079461 268.827092 
L 124.512623 251.780742 
L 124.729204 261.871559 
L 124.945784 251.513176 
L 125.162365 277.595485 
L 125.378946 247.302611 
L 125.595527 272.431693 
L 125.812107 249.181239 
L 126.028688 246.670197 
L 126.245269 274.568941 
L 126.46185 252.748215 
L 126.67843 248.897653 
L 126.895011 257.255913 
L 127.111592 232.939346 
L 127.328173 243.868803 
L 127.544753 266.733106 
L 127.761334 251.367789 
L 127.977915 251.614698 
L 128.194496 267.101028 
L 128.411076 265.105387 
L 128.627657 254.369051 
L 128.844238 272.291051 
L 129.060819 246.195455 
L 129.277399 235.223582 
L 129.49398 262.831914 
L 129.710561 227.121111 
L 130.143722 263.343758 
L 130.360303 247.964052 
L 130.576884 241.670441 
L 130.793465 249.300303 
L 131.010045 238.875775 
L 131.226626 234.927653 
L 131.659788 259.625896 
L 131.876368 242.397301 
L 132.092949 244.051644 
L 132.30953 242.482906 
L 132.742691 259.115018 
L 132.959272 264.225316 
L 133.175853 259.088264 
L 133.392434 266.568215 
L 133.609014 265.505548 
L 133.825595 272.997283 
L 134.042176 244.353783 
L 134.258757 275.631829 
L 134.475337 272.908035 
L 134.908499 260.074445 
L 135.12508 265.273197 
L 135.558241 240.364749 
L 135.774822 234.254581 
L 135.991403 262.043189 
L 136.207984 257.290592 
L 136.424564 236.062454 
L 136.641145 258.790424 
L 136.857726 254.595768 
L 137.074307 272.25009 
L 137.290887 239.830503 
L 137.507468 254.312727 
L 137.724049 228.865243 
L 138.15721 271.37144 
L 138.373791 233.914706 
L 138.590372 239.380055 
L 138.806953 258.566329 
L 139.023533 240.114295 
L 139.240114 242.434666 
L 139.456695 265.849649 
L 139.673276 273.820189 
L 139.889856 243.368718 
L 140.106437 242.55683 
L 140.323018 256.89506 
L 140.539599 260.944618 
L 140.756179 281.220388 
L 141.189341 245.544133 
L 141.405922 243.446146 
L 141.622502 258.332824 
L 141.839083 240.046584 
L 142.055664 259.312528 
L 142.272245 250.279208 
L 142.488825 251.107476 
L 142.705406 272.821727 
L 142.921987 255.852118 
L 143.138568 249.11958 
L 143.355148 238.401188 
L 143.571729 251.63449 
L 143.78831 237.478366 
L 144.004891 261.484443 
L 144.221471 231.618784 
L 144.654633 267.000704 
L 144.871214 261.873499 
L 145.087794 262.071297 
L 145.304375 267.454082 
L 145.520956 250.995885 
L 145.737537 274.524839 
L 145.954117 267.636218 
L 146.170698 274.967603 
L 146.387279 247.298198 
L 146.82044 281.59195 
L 147.037021 251.121603 
L 147.253602 247.092515 
L 147.470183 258.386025 
L 147.686763 252.401537 
L 147.903344 266.478467 
L 148.119925 270.451399 
L 148.336506 271.38479 
L 148.553086 270.930304 
L 148.769667 234.505218 
L 148.986248 253.102445 
L 149.202829 240.374488 
L 149.419409 264.231631 
L 149.63599 238.965824 
L 149.852571 253.88502 
L 150.069152 246.020626 
L 150.502313 268.742163 
L 150.718894 248.483533 
L 150.935475 256.901385 
L 151.152055 237.334466 
L 151.368636 261.31514 
L 151.585217 255.772487 
L 151.801798 270.960115 
L 152.018378 251.537381 
L 152.234959 251.56605 
L 152.45154 272.626265 
L 152.668121 252.681033 
L 152.884701 263.982231 
L 153.101282 261.329067 
L 153.317863 244.694637 
L 153.534444 260.651664 
L 153.751024 249.781386 
L 153.967605 261.007425 
L 154.184186 253.081797 
L 154.400767 262.718348 
L 154.617347 235.857476 
L 154.833928 278.780573 
L 155.050509 258.7001 
L 155.26709 262.595191 
L 155.48367 254.28863 
L 155.700251 260.986336 
L 155.916832 236.628371 
L 156.133413 264.108909 
L 156.349993 267.932378 
L 156.566574 264.35506 
L 156.783155 236.658743 
L 157.216316 258.066893 
L 157.432897 242.118315 
L 157.649478 257.381367 
L 157.866059 256.488542 
L 158.082639 249.318034 
L 158.29922 228.69872 
L 158.515801 254.071655 
L 158.948962 265.38631 
L 159.165543 257.491567 
L 159.382124 258.477554 
L 159.598705 251.463072 
L 159.815285 255.668279 
L 160.031866 269.796115 
L 160.248447 252.836685 
L 160.465028 267.109499 
L 160.681608 269.671401 
L 160.898189 252.102515 
L 161.11477 272.582689 
L 161.547931 260.292748 
L 161.764512 253.597506 
L 161.981093 264.070222 
L 162.197674 244.842956 
L 162.414254 266.186385 
L 162.630835 260.508855 
L 162.847416 260.051118 
L 163.063997 263.536947 
L 163.497158 284.815929 
L 163.713739 270.926113 
L 163.93032 265.296657 
L 164.1469 270.388548 
L 164.363481 264.967413 
L 164.580062 250.142907 
L 164.796643 257.522072 
L 165.013223 227.436556 
L 165.229804 281.863957 
L 165.879546 263.298246 
L 166.096127 273.784433 
L 166.312708 230.583106 
L 166.529289 269.561348 
L 166.745869 256.157681 
L 166.96245 280.342245 
L 167.179031 263.753443 
L 167.395612 258.788503 
L 167.612192 250.9779 
L 167.828773 271.226866 
L 168.045354 270.019548 
L 168.261935 270.673639 
L 168.478515 257.247667 
L 168.695096 268.273029 
L 168.911677 235.743897 
L 169.128258 260.753985 
L 169.344838 270.068976 
L 169.561419 274.410859 
L 169.778 265.441308 
L 169.994581 244.675 
L 170.211161 244.601205 
L 170.427742 250.589298 
L 170.644323 271.264688 
L 170.860904 245.967492 
L 171.077484 249.572891 
L 171.294065 275.269773 
L 171.727227 253.851643 
L 171.943807 247.757079 
L 172.376969 283.60668 
L 172.59355 231.989284 
L 172.81013 282.073827 
L 173.026711 281.856876 
L 173.243292 241.28168 
L 173.459873 255.729723 
L 173.676453 249.924477 
L 173.893034 267.50513 
L 174.109615 266.996063 
L 174.326196 262.290466 
L 174.542776 276.505827 
L 174.975938 271.787876 
L 175.192519 256.337208 
L 175.409099 252.689492 
L 175.62568 272.566461 
L 175.842261 265.496554 
L 176.058842 275.961689 
L 176.275422 244.550566 
L 176.708584 282.229958 
L 176.925165 256.349893 
L 177.141745 280.370197 
L 177.358326 251.502523 
L 177.574907 249.247334 
L 178.008068 267.252784 
L 178.224649 261.800322 
L 178.44123 270.905871 
L 178.657811 271.31751 
L 178.874391 267.142258 
L 179.090972 267.552025 
L 179.307553 271.709977 
L 179.524134 250.355957 
L 179.740714 251.446945 
L 179.957295 248.78765 
L 180.173876 247.806342 
L 180.390457 272.135476 
L 180.607037 255.095477 
L 180.823618 281.052621 
L 181.040199 269.730996 
L 181.25678 270.999081 
L 181.47336 270.955678 
L 181.689941 254.833635 
L 182.339683 271.810707 
L 182.556264 257.95456 
L 182.772845 278.644767 
L 182.989426 276.53974 
L 183.206006 266.836483 
L 183.422587 282.950754 
L 183.639168 256.300157 
L 183.855749 252.329587 
L 184.072329 250.674892 
L 184.28891 271.975105 
L 184.505491 267.018229 
L 184.722072 272.81901 
L 184.938652 264.275448 
L 185.155233 267.481178 
L 185.371814 249.054148 
L 185.588395 251.20307 
L 186.021556 282.102548 
L 186.238137 275.553323 
L 186.454718 250.513315 
L 186.671298 262.078528 
L 187.10446 261.850337 
L 187.321041 265.083709 
L 187.537621 250.168301 
L 187.754202 262.420854 
L 187.970783 282.983577 
L 188.403944 265.339846 
L 188.620525 278.902 
L 188.837106 271.485984 
L 189.053687 280.209587 
L 189.270267 269.746273 
L 189.486848 284.423644 
L 189.703429 254.671656 
L 189.92001 258.520293 
L 190.13659 272.182359 
L 190.353171 278.454586 
L 190.786333 263.272424 
L 191.002913 286.049952 
L 191.219494 246.816151 
L 191.436075 249.869758 
L 191.652656 236.768695 
L 191.869236 242.13189 
L 192.085817 242.573988 
L 192.302398 267.022341 
L 192.518979 275.426999 
L 192.735559 255.775518 
L 192.95214 272.79318 
L 193.168721 270.689419 
L 193.385302 260.738206 
L 193.601882 259.800817 
L 193.818463 275.536077 
L 194.035044 253.59619 
L 194.251625 253.090204 
L 194.468205 270.805285 
L 194.684786 274.26568 
L 194.901367 254.453755 
L 195.117948 284.744776 
L 195.551109 254.607708 
L 195.76769 274.536874 
L 195.984271 262.082783 
L 196.200851 263.602331 
L 196.417432 276.880285 
L 196.634013 269.302161 
L 196.850594 240.499404 
L 197.067174 264.426998 
L 197.283755 255.467504 
L 197.500336 269.396325 
L 197.716917 267.931316 
L 197.933497 283.230742 
L 198.150078 279.962857 
L 198.366659 261.415553 
L 198.58324 281.131352 
L 198.79982 233.226822 
L 199.449563 269.509787 
L 199.666143 273.403267 
L 199.882724 256.879548 
L 200.099305 290.290584 
L 200.315886 267.708796 
L 200.532466 279.144509 
L 200.749047 249.070774 
L 200.965628 267.502555 
L 201.182209 271.400725 
L 201.398789 270.181799 
L 201.61537 274.202937 
L 201.831951 257.868046 
L 202.048532 278.339141 
L 202.265112 274.662709 
L 202.481693 259.733686 
L 202.698274 255.304221 
L 202.914855 284.069958 
L 203.131436 248.43253 
L 203.348016 252.241478 
L 203.564597 250.942339 
L 203.781178 253.632566 
L 203.997759 261.060502 
L 204.214339 281.382877 
L 204.43092 261.958124 
L 204.647501 257.062039 
L 204.864082 232.293011 
L 205.080662 254.7673 
L 205.513824 265.133631 
L 205.730405 273.381236 
L 205.946985 265.033738 
L 206.163566 275.365932 
L 206.380147 278.759452 
L 206.596728 273.900204 
L 206.813308 263.781985 
L 207.029889 241.818209 
L 207.24647 260.352277 
L 207.463051 259.100108 
L 207.679631 237.142961 
L 207.896212 277.568786 
L 208.112793 275.195197 
L 208.329374 275.085587 
L 208.545954 267.421307 
L 208.762535 275.058519 
L 208.979116 277.416923 
L 209.195697 257.975525 
L 209.412277 273.800465 
L 209.628858 279.794096 
L 209.845439 276.533242 
L 210.06202 259.743276 
L 210.2786 280.11803 
L 210.495181 252.031379 
L 210.711762 272.551682 
L 210.928343 271.037742 
L 211.144923 274.67546 
L 211.361504 253.55244 
L 211.578085 244.278878 
L 211.794666 249.26024 
L 212.011246 248.55075 
L 212.227827 269.980652 
L 212.444408 242.355999 
L 212.660989 257.169703 
L 212.877569 260.15459 
L 213.09415 246.207943 
L 213.310731 270.107476 
L 213.527312 245.610694 
L 213.743892 278.919174 
L 213.960473 253.766216 
L 214.393635 278.587431 
L 214.610215 265.01192 
L 214.826796 279.180916 
L 215.043377 248.806475 
L 215.259958 291.312812 
L 215.476538 243.005912 
L 215.693119 289.285744 
L 215.9097 287.712802 
L 216.126281 273.82058 
L 216.342861 267.725925 
L 216.559442 264.924801 
L 217.209184 290.073485 
L 217.425765 243.404498 
L 217.642346 263.155798 
L 217.858927 245.920958 
L 218.075507 245.539708 
L 218.292088 291.692944 
L 218.508669 269.885987 
L 218.72525 220.514564 
L 219.158411 282.346645 
L 219.374992 250.100245 
L 219.808153 282.850917 
L 220.024734 281.928004 
L 220.241315 277.383013 
L 220.457896 242.137413 
L 220.891057 255.622795 
L 221.107638 250.44692 
L 221.324219 272.887268 
L 221.75738 240.594151 
L 221.973961 262.732494 
L 222.190542 252.082199 
L 222.407122 290.665932 
L 222.623703 271.54392 
L 222.840284 266.776558 
L 223.056865 273.889992 
L 223.273445 271.451056 
L 223.490026 278.015906 
L 223.923188 262.079574 
L 224.139768 266.925153 
L 224.356349 265.60229 
L 224.57293 275.240003 
L 224.789511 265.654048 
L 225.006091 270.802968 
L 225.222672 260.107273 
L 225.439253 261.127313 
L 225.655834 277.461728 
L 225.872414 263.688312 
L 226.305576 282.211261 
L 226.522157 268.422268 
L 226.955318 258.879947 
L 227.171899 273.791537 
L 227.38848 273.640752 
L 227.60506 277.601898 
L 227.821641 275.894047 
L 228.038222 248.625791 
L 228.254803 266.628847 
L 228.687964 281.603165 
L 228.904545 266.951637 
L 229.121126 271.319098 
L 229.337706 270.800149 
L 229.554287 268.635454 
L 229.770868 245.761733 
L 230.204029 284.709308 
L 230.42061 264.29577 
L 230.637191 271.746749 
L 230.853772 289.10668 
L 231.070352 266.984288 
L 231.286933 269.005979 
L 231.503514 279.169299 
L 231.936675 260.676443 
L 232.153256 287.635106 
L 232.369837 237.841599 
L 232.586418 279.396764 
L 232.802998 269.859803 
L 233.019579 287.341926 
L 233.23616 263.362187 
L 233.452741 267.004385 
L 233.669321 281.144208 
L 233.885902 283.399825 
L 234.102483 260.505947 
L 234.535644 261.0805 
L 234.968806 285.864618 
L 235.185387 269.697898 
L 235.401967 276.089391 
L 235.618548 254.024795 
L 235.835129 270.518854 
L 236.05171 262.648934 
L 236.26829 249.04303 
L 236.484871 282.894106 
L 236.701452 271.887585 
L 236.918033 286.893109 
L 237.134613 270.817584 
L 237.351194 276.04437 
L 237.567775 254.741668 
L 237.784356 278.478208 
L 238.000936 259.311982 
L 238.217517 287.720275 
L 238.650679 268.976457 
L 238.867259 270.219148 
L 239.08384 269.052079 
L 239.300421 255.326921 
L 239.733582 290.746322 
L 239.950163 275.754326 
L 240.166744 276.21351 
L 240.599905 253.807959 
L 240.816486 284.49191 
L 241.033067 259.778384 
L 241.249648 281.022173 
L 241.466228 278.688853 
L 241.682809 274.098219 
L 241.89939 252.479136 
L 242.115971 276.44721 
L 242.332551 256.66249 
L 242.549132 285.988607 
L 242.765713 270.534025 
L 242.982294 237.658825 
L 243.198874 264.919379 
L 243.415455 273.045037 
L 243.632036 289.302719 
L 243.848617 248.837506 
L 244.065197 275.280045 
L 244.281778 272.16348 
L 244.498359 234.949744 
L 244.93152 279.178735 
L 245.148101 250.438185 
L 245.364682 286.721651 
L 245.581263 244.32538 
L 245.797843 252.706665 
L 246.014424 267.374967 
L 246.231005 262.716268 
L 246.447586 289.414182 
L 246.664166 247.661992 
L 246.880747 248.003462 
L 247.097328 280.06398 
L 247.313909 254.228144 
L 247.530489 256.181122 
L 247.963651 279.963721 
L 248.180232 252.646182 
L 248.613393 285.553329 
L 248.829974 268.025984 
L 249.046555 275.309001 
L 249.263135 276.560604 
L 249.479716 282.638504 
L 249.912878 252.585335 
L 250.129458 289.551511 
L 250.346039 274.626831 
L 250.56262 282.654773 
L 250.779201 267.843283 
L 250.995781 269.141265 
L 251.212362 281.811233 
L 251.428943 252.500326 
L 251.645524 264.3228 
L 251.862104 236.889711 
L 252.078685 279.500831 
L 252.295266 273.746963 
L 252.511847 278.577398 
L 252.728427 250.604743 
L 253.161589 271.763051 
L 253.37817 247.521425 
L 253.59475 243.946732 
L 253.811331 251.813346 
L 254.244493 280.46059 
L 254.461073 250.845048 
L 254.677654 257.46279 
L 255.110816 273.982464 
L 255.327396 277.760813 
L 255.543977 265.524506 
L 255.760558 266.128216 
L 255.977139 273.309977 
L 256.193719 286.267237 
L 256.4103 255.529129 
L 256.626881 287.332201 
L 256.843462 288.143288 
L 257.060042 271.790184 
L 257.276623 269.145415 
L 257.709785 283.58661 
L 257.926365 267.430564 
L 258.142946 282.143697 
L 258.359527 255.645291 
L 258.792688 278.956784 
L 259.009269 268.305477 
L 259.22585 279.570806 
L 259.442431 279.022823 
L 259.659011 286.884904 
L 259.875592 255.074949 
L 260.092173 284.952918 
L 260.308754 258.731913 
L 260.525334 269.430412 
L 260.741915 262.858262 
L 260.958496 265.281088 
L 261.175077 291.826703 
L 261.608238 278.864339 
L 261.824819 221.738032 
L 262.0414 289.017082 
L 262.25798 285.816224 
L 262.691142 256.267056 
L 262.907723 273.985962 
L 263.124303 282.202167 
L 263.340884 245.677796 
L 263.557465 283.785049 
L 263.774046 269.049758 
L 263.990626 265.949684 
L 264.207207 273.171087 
L 264.423788 242.639937 
L 264.640369 269.677169 
L 264.856949 261.540539 
L 265.07353 276.582856 
L 265.290111 242.723728 
L 265.506692 283.821708 
L 265.723272 285.665869 
L 265.939853 264.995073 
L 266.156434 283.399 
L 266.373015 257.692389 
L 266.589595 284.940775 
L 266.806176 258.103976 
L 267.022757 254.822707 
L 267.239338 274.367602 
L 267.455918 273.32836 
L 267.672499 273.740362 
L 267.88908 253.504701 
L 268.105661 249.396655 
L 268.322241 264.709423 
L 268.538822 268.314978 
L 268.755403 253.778254 
L 268.971984 277.914253 
L 269.188564 275.613963 
L 269.405145 281.94679 
L 269.621726 278.116497 
L 269.838307 243.841089 
L 270.054888 284.684017 
L 270.271468 281.689292 
L 270.488049 256.859559 
L 270.70463 252.284081 
L 270.921211 273.390571 
L 271.137791 279.636594 
L 271.354372 273.016232 
L 271.570953 275.74281 
L 271.787534 270.613131 
L 272.004114 289.596408 
L 272.220695 268.342046 
L 272.437276 272.856379 
L 272.653857 271.087643 
L 273.303599 280.456521 
L 273.52018 278.770677 
L 273.73676 268.252828 
L 273.953341 265.601938 
L 274.169922 276.0728 
L 274.386503 248.988051 
L 274.603083 287.151136 
L 274.819664 280.643039 
L 275.036245 270.383458 
L 275.252826 266.440576 
L 275.469406 271.15482 
L 275.685987 269.862642 
L 275.902568 244.608376 
L 276.119149 269.148294 
L 276.335729 279.274922 
L 276.55231 254.591111 
L 276.768891 277.978572 
L 276.985472 256.684191 
L 277.202052 276.18065 
L 277.418633 278.371765 
L 277.635214 229.625112 
L 277.851795 264.390748 
L 278.068375 273.765245 
L 278.284956 267.589291 
L 278.501537 246.941343 
L 278.718118 268.410582 
L 278.934698 267.092706 
L 279.151279 263.232779 
L 279.36786 265.548097 
L 279.584441 269.938861 
L 279.801021 280.167728 
L 280.017602 258.086549 
L 280.667344 280.895726 
L 280.883925 270.307043 
L 281.100506 276.621568 
L 281.533667 259.322248 
L 281.750248 285.483371 
L 281.966829 280.287809 
L 282.18341 290.553505 
L 282.616571 262.688579 
L 282.833152 291.31477 
L 283.049733 292.140868 
L 283.266313 266.942022 
L 283.482894 281.587619 
L 283.699475 250.946523 
L 283.916056 255.872186 
L 284.132636 289.575251 
L 284.349217 243.087322 
L 284.565798 268.704627 
L 284.782379 264.235892 
L 284.998959 265.943039 
L 285.21554 262.329077 
L 285.432121 265.382246 
L 285.648702 283.149941 
L 285.865282 281.438899 
L 286.081863 258.946187 
L 286.298444 280.770915 
L 286.515025 284.357728 
L 286.731605 268.892514 
L 286.948186 276.360713 
L 287.164767 261.206348 
L 287.381348 271.042572 
L 287.597928 273.846691 
L 287.814509 280.781694 
L 288.03109 256.522455 
L 288.247671 250.955724 
L 288.464251 283.711759 
L 288.680832 287.8768 
L 288.897413 280.200436 
L 289.113994 258.155931 
L 289.330574 258.856487 
L 289.547155 277.854947 
L 289.763736 262.865123 
L 289.980317 259.039001 
L 290.196897 252.284803 
L 290.413478 279.215051 
L 290.630059 284.319384 
L 290.84664 284.56829 
L 291.279801 260.05075 
L 291.496382 291.241648 
L 291.712963 260.076617 
L 291.929543 268.417163 
L 292.146124 251.087009 
L 292.362705 263.476708 
L 292.579286 261.241453 
L 292.795866 278.631468 
L 293.012447 238.026801 
L 293.229028 268.179629 
L 293.445609 276.715539 
L 293.662189 293.546686 
L 293.87877 282.999647 
L 294.095351 279.228415 
L 294.311932 228.875743 
L 294.528512 274.131139 
L 294.745093 278.756864 
L 294.961674 275.681179 
L 295.394835 263.357432 
L 295.611416 258.199339 
L 295.827997 241.067039 
L 296.044578 283.910772 
L 296.261158 287.634325 
L 296.477739 262.802186 
L 296.69432 286.03469 
L 296.910901 278.115139 
L 297.127481 258.071943 
L 297.344062 256.406568 
L 297.560643 270.9245 
L 297.777224 258.382829 
L 297.993804 292.893778 
L 298.210385 254.503814 
L 298.426966 264.373724 
L 298.643547 286.138123 
L 299.076708 256.965517 
L 299.293289 258.259111 
L 299.50987 291.586653 
L 299.72645 260.909583 
L 299.943031 275.630805 
L 300.159612 239.280343 
L 300.376193 292.328447 
L 300.809354 247.301184 
L 301.025935 286.648728 
L 301.242516 259.595077 
L 301.459096 273.827688 
L 301.675677 262.99547 
L 301.892258 291.069571 
L 302.108839 260.591124 
L 302.325419 271.476633 
L 302.542 276.553916 
L 302.758581 263.611449 
L 302.975162 283.697648 
L 303.191742 289.759615 
L 303.408323 291.250697 
L 303.624904 280.591747 
L 303.841485 255.393633 
L 304.058065 254.053702 
L 304.274646 256.802846 
L 304.491227 266.997854 
L 304.707808 266.92766 
L 304.924388 279.721696 
L 305.140969 264.736637 
L 305.35755 273.241699 
L 305.574131 292.349045 
L 305.790711 276.596617 
L 306.007292 278.406702 
L 306.223873 273.578459 
L 306.440454 273.121492 
L 306.657034 257.844738 
L 306.873615 286.479862 
L 307.090196 236.963167 
L 307.306777 285.956032 
L 307.523357 288.398952 
L 307.739938 272.809396 
L 307.956519 270.504465 
L 308.1731 249.211687 
L 308.38968 252.349642 
L 308.606261 260.141471 
L 308.822842 285.080507 
L 309.039423 264.571658 
L 309.256003 263.01051 
L 309.689165 269.059557 
L 309.905746 259.908325 
L 310.122326 279.260952 
L 310.338907 264.991282 
L 310.555488 292.740669 
L 310.772069 269.66681 
L 310.988649 281.598387 
L 311.20523 256.973097 
L 311.421811 261.998745 
L 311.638392 284.750358 
L 311.854972 254.532939 
L 312.071553 286.906871 
L 312.288134 239.296968 
L 312.504715 288.452268 
L 312.721295 258.635112 
L 312.937876 264.041997 
L 313.154457 255.947262 
L 313.371038 284.130638 
L 313.587618 272.67262 
L 313.804199 274.027041 
L 314.02078 263.162417 
L 314.237361 285.548274 
L 314.453941 274.615979 
L 314.670522 276.729254 
L 314.887103 282.730219 
L 315.103684 283.495776 
L 315.320264 287.439972 
L 315.536845 257.686204 
L 315.753426 281.266668 
L 315.970007 260.364787 
L 316.186587 285.707182 
L 316.403168 280.218759 
L 316.619749 278.249839 
L 316.83633 285.166161 
L 317.05291 284.002412 
L 317.269491 285.077188 
L 317.486072 269.395688 
L 317.702653 269.273127 
L 317.919233 290.025427 
L 318.352395 259.599734 
L 318.785556 286.596393 
L 319.002137 264.140019 
L 319.218718 275.969307 
L 319.435299 257.583674 
L 319.651879 257.719153 
L 320.085041 282.130154 
L 320.301622 274.522422 
L 320.518202 259.472333 
L 320.734783 276.202477 
L 320.951364 274.596303 
L 321.384525 256.018774 
L 321.601106 276.846533 
L 321.817687 248.152735 
L 322.250848 275.010457 
L 322.467429 261.551463 
L 322.68401 271.177147 
L 322.900591 286.090528 
L 323.117171 273.104946 
L 323.333752 289.13466 
L 323.550333 271.113234 
L 323.766914 287.897857 
L 323.983494 284.177359 
L 324.200075 272.35291 
L 324.416656 272.620427 
L 324.633237 264.831271 
L 324.849817 269.719492 
L 325.066398 289.411951 
L 325.282979 281.665345 
L 325.49956 258.139046 
L 325.71614 262.361464 
L 325.932721 281.244836 
L 326.149302 286.681379 
L 326.365883 283.0634 
L 326.582463 275.804948 
L 326.799044 291.21295 
L 327.232206 271.215165 
L 327.448786 268.054612 
L 327.665367 283.30624 
L 327.881948 249.374294 
L 328.098529 278.626054 
L 328.315109 269.936697 
L 328.53169 266.852917 
L 328.748271 269.529186 
L 328.964852 280.856529 
L 329.181432 283.183659 
L 329.398013 276.188395 
L 329.614594 273.471005 
L 329.831175 264.420717 
L 330.047755 285.628068 
L 330.264336 265.709836 
L 330.480917 275.300275 
L 330.697498 258.257304 
L 330.914078 278.53161 
L 331.130659 282.209674 
L 331.34724 279.151441 
L 331.563821 283.128678 
L 331.780401 284.343253 
L 331.996982 262.624998 
L 332.213563 281.239321 
L 332.430144 278.408624 
L 332.646724 244.256363 
L 333.079886 261.940532 
L 333.296467 269.410186 
L 333.513047 263.987668 
L 333.729628 277.060036 
L 333.946209 263.8513 
L 334.16279 278.080822 
L 334.37937 248.760833 
L 334.595951 290.045687 
L 334.812532 263.059985 
L 335.029113 268.506261 
L 335.245693 280.237484 
L 335.462274 279.064436 
L 335.678855 265.185824 
L 335.895436 265.927388 
L 336.545178 291.026613 
L 336.978339 284.522417 
L 337.19492 272.125617 
L 337.411501 277.159154 
L 337.628082 279.213518 
L 337.844663 257.407684 
L 338.061243 280.016405 
L 338.277824 263.317597 
L 338.494405 257.596852 
L 338.710986 280.884822 
L 338.927566 265.833781 
L 339.144147 266.523058 
L 339.360728 281.412158 
L 339.577309 267.765487 
L 339.793889 237.629348 
L 340.01047 268.698679 
L 340.443632 287.248946 
L 340.660212 283.847069 
L 340.876793 271.755824 
L 341.309955 290.156638 
L 341.526535 275.15009 
L 341.743116 272.038529 
L 341.959697 280.760029 
L 342.176278 265.663467 
L 342.392858 271.59424 
L 342.609439 259.809456 
L 342.82602 280.125712 
L 343.042601 274.485323 
L 343.259181 287.157042 
L 343.475762 269.17132 
L 343.692343 278.515433 
L 343.908924 262.623131 
L 344.125504 273.952649 
L 344.342085 276.862822 
L 344.558666 272.660135 
L 344.775247 263.584901 
L 344.991827 290.899963 
L 345.208408 283.550809 
L 345.424989 271.463773 
L 345.64157 267.071332 
L 345.85815 277.629955 
L 346.074731 268.89034 
L 346.291312 254.565539 
L 346.507893 261.618835 
L 346.724473 290.493868 
L 346.941054 288.475812 
L 347.157635 252.636529 
L 347.374216 257.093086 
L 347.590796 289.113333 
L 347.807377 284.549411 
L 348.023958 262.914269 
L 348.457119 279.927499 
L 348.890281 267.355739 
L 349.106862 271.750725 
L 349.323442 255.349636 
L 349.540023 275.799143 
L 349.756604 279.300744 
L 349.973185 278.50095 
L 350.189765 270.493866 
L 350.406346 243.594383 
L 350.839508 284.572638 
L 351.272669 257.147019 
L 351.48925 292.581191 
L 351.705831 280.005926 
L 351.922411 293.691912 
L 352.138992 260.590594 
L 352.355573 277.055247 
L 352.572154 276.348457 
L 352.788734 253.60812 
L 353.005315 259.35921 
L 353.221896 286.884197 
L 353.438477 277.271474 
L 353.655057 278.129516 
L 353.871638 266.970925 
L 354.088219 262.457001 
L 354.52138 283.504791 
L 354.737961 278.262447 
L 354.954542 275.946513 
L 355.171123 282.691313 
L 355.604284 241.312692 
L 355.820865 292.460692 
L 356.254026 274.403083 
L 356.470607 251.415616 
L 356.687188 285.953845 
L 356.903769 272.927318 
L 357.33693 289.357572 
L 357.553511 276.687886 
L 357.770092 274.792294 
L 357.986672 277.37704 
L 358.203253 285.103006 
L 358.419834 258.938921 
L 358.636415 287.751903 
L 358.852995 271.745305 
L 359.069576 279.400808 
L 359.286157 280.75512 
L 359.502738 290.519251 
L 359.719318 264.63313 
L 359.935899 278.162472 
L 360.15248 276.806785 
L 360.369061 263.928307 
L 360.802222 282.60108 
L 361.018803 265.785073 
L 361.235384 282.822836 
L 361.451964 271.101174 
L 361.668545 288.951386 
L 362.101707 260.986865 
L 362.318287 284.002899 
L 362.534868 267.321522 
L 362.751449 276.159574 
L 362.96803 267.043011 
L 363.18461 289.475139 
L 363.401191 269.618209 
L 363.617772 268.866997 
L 363.834353 256.73367 
L 364.050933 290.937282 
L 364.267514 271.505098 
L 364.484095 262.926297 
L 364.700676 284.669127 
L 364.917256 275.597197 
L 365.133837 278.289399 
L 365.350418 276.915055 
L 365.566999 294.666211 
L 365.783579 260.783719 
L 366.00016 276.327162 
L 366.216741 242.138814 
L 366.433322 256.007564 
L 366.649902 283.462386 
L 366.866483 276.293652 
L 367.083064 278.833883 
L 367.299645 284.486183 
L 367.732806 251.04654 
L 367.949387 267.741497 
L 368.165968 261.331825 
L 368.382548 266.56891 
L 368.599129 284.9353 
L 368.81571 283.800299 
L 369.032291 277.375487 
L 369.248871 279.816827 
L 369.465452 268.20049 
L 369.682033 283.636209 
L 370.115194 267.11635 
L 370.331775 283.291159 
L 370.548356 280.028522 
L 370.764937 250.830963 
L 371.198098 280.507794 
L 371.414679 252.81002 
L 371.63126 282.37744 
L 371.84784 250.116128 
L 372.497583 293.106467 
L 372.714163 288.196198 
L 372.930744 266.603434 
L 373.147325 275.907535 
L 373.363906 278.358331 
L 373.580486 266.582856 
L 373.797067 273.156197 
L 374.013648 256.764491 
L 374.230229 281.893529 
L 374.446809 252.018311 
L 374.66339 258.899923 
L 374.879971 246.167033 
L 375.096552 278.572709 
L 375.313132 288.014107 
L 375.529713 284.100163 
L 375.746294 275.924328 
L 375.962875 248.943641 
L 376.179455 255.028869 
L 376.396036 277.673309 
L 376.612617 269.040539 
L 376.829198 269.575713 
L 377.045778 294.316938 
L 377.262359 257.82603 
L 377.695521 287.016724 
L 377.912101 244.045934 
L 378.128682 283.871349 
L 378.345263 258.829029 
L 378.561844 275.468311 
L 378.778424 259.417683 
L 378.995005 281.672523 
L 379.211586 271.786084 
L 379.428167 291.859189 
L 379.644747 251.892089 
L 379.861328 282.096217 
L 380.077909 282.213578 
L 380.29449 272.867694 
L 380.51107 283.40309 
L 380.727651 256.998038 
L 380.944232 266.984104 
L 381.160813 266.795687 
L 381.377393 290.56937 
L 381.810555 250.866366 
L 382.027136 280.011442 
L 382.243716 270.700585 
L 382.460297 239.509587 
L 382.676878 284.613753 
L 382.893459 265.800715 
L 383.110039 281.450838 
L 383.32662 279.16464 
L 383.543201 238.942846 
L 383.759782 251.408096 
L 383.976362 277.576553 
L 384.192943 279.909006 
L 384.409524 254.169103 
L 384.626105 278.197446 
L 384.842685 267.938449 
L 385.059266 277.70917 
L 385.275847 295.488 
L 385.492428 271.341577 
L 385.925589 279.563749 
L 386.14217 257.668235 
L 386.575331 288.413854 
L 386.791912 260.876821 
L 387.225074 276.258473 
L 387.441654 257.69574 
L 387.658235 276.196655 
L 387.874816 260.229843 
L 388.091397 255.343099 
L 388.307977 256.268454 
L 388.524558 269.081058 
L 388.741139 264.352493 
L 388.95772 280.551486 
L 389.1743 265.591178 
L 389.390881 282.78448 
L 389.607462 283.398094 
L 389.824043 261.551682 
L 390.040623 260.796134 
L 390.257204 252.673463 
L 390.473785 274.712435 
L 390.690366 271.659525 
L 390.906946 273.557899 
L 391.123527 283.25223 
L 391.340108 246.351605 
L 391.556689 290.245782 
L 391.773269 280.614486 
L 391.98985 262.505409 
L 392.423012 289.093788 
L 392.639592 286.57292 
L 392.856173 274.992418 
L 393.072754 282.472306 
L 393.289335 276.147996 
L 393.505915 254.807734 
L 393.722496 254.662414 
L 393.939077 254.983042 
L 394.155658 263.302161 
L 394.372238 291.383263 
L 394.588819 270.745536 
L 394.8054 264.820003 
L 395.021981 288.28799 
L 395.238561 276.565315 
L 395.455142 291.570098 
L 395.671723 282.341298 
L 395.888304 265.030695 
L 396.321465 261.636519 
L 396.538046 294.607132 
L 396.754627 262.608155 
L 396.971207 269.653273 
L 397.187788 266.345917 
L 397.404369 276.046897 
L 397.62095 266.97064 
L 397.83753 274.548441 
L 398.054111 290.110249 
L 398.487273 257.066183 
L 398.487273 257.066183 
" clip-path="url(#p5875fb859c)" style="fill: none; stroke: #1f77b4; stroke-width: 1.5; stroke-linecap: square"/>
   </g>
   <g id="patch_3">
    <path d="M 57.6 307.584 
L 57.6 41.472 
" style="fill: none; stroke: #000000; stroke-width: 0.8; stroke-linejoin: miter; stroke-linecap: square"/>
   </g>
   <g id="patch_4">
    <path d="M 414.72 307.584 
L 414.72 41.472 
" style="fill: none; stroke: #000000; stroke-width: 0.8; stroke-linejoin: miter; stroke-linecap: square"/>
   </g>
   <g id="patch_5">
    <path d="M 57.6 307.584 
L 414.72 307.584 
" style="fill: none; stroke: #000000; stroke-width: 0.8; stroke-linejoin: miter; stroke-linecap: square"/>
   </g>
   <g id="patch_6">
    <path d="M 57.6 41.472 
L 414.72 41.472 
" style="fill: none; stroke: #000000; stroke-width: 0.8; stroke-linejoin: miter; stroke-linecap: square"/>
   </g>
  </g>
 </g>
 <defs>
  <clipPath id="p5875fb859c">
   <rect x="57.6" y="41.472" width="357.12" height="266.112"/>
  </clipPath>
 </defs>
</svg>
